<?xml version="1.0" encoding="utf-8"?>
<!-- Generator: Adobe Illustrator 16.0.0, SVG Export Plug-In . SVG Version: 6.00 Build 0)  -->
<!DOCTYPE svg PUBLIC "-//W3C//DTD SVG 1.1//EN" "http://www.w3.org/Graphics/SVG/1.1/DTD/svg11.dtd">
<svg version="1.1" id="图层_1" xmlns="http://www.w3.org/2000/svg" xmlns:xlink="http://www.w3.org/1999/xlink" x="0px" y="0px"
	 width="960px" height="540px" viewBox="0 0 960 540" enable-background="new 0 0 960 540" xml:space="preserve">
<g id="矩形_1261" transform="translate(290 50)">
	<path fill="#F4F1EC" d="M50,0h280c27.614,0,50,22.386,50,50v65l0,0H0l0,0V50C0,22.386,22.386,0,50,0z"/>
	<path fill="#3D3D63" d="M354,115H26c-14.336,0-26-11.664-26-26V50C0,22.43,22.43,0,50,0h280c27.57,0,50,22.43,50,50v39
		C380,103.336,368.337,115,354,115z M50,26c-13.234,0-24,10.766-24,24v39h328c0.011,0,0.017,0,0.017,0L354,50
		c0-13.234-10.767-24-24-24H50z"/>
</g>
<rect id="矩形_1262" x="316" y="107" fill="#B5C1CC" width="328" height="28"/>
<g id="组_766">
	<path id="路径_1806" opacity="0.2" fill="#69BAF9" enable-background="new    " d="M820,509.85c0-187.776-152.223-340-340-340
		c-187.777,0-340,152.223-340,340"/>
	<path id="路径_1807" opacity="0.5" fill="#69BAF9" enable-background="new    " d="M727.618,509.85
		c0-136.812-110.908-247.72-247.719-247.72c-136.812,0-247.72,110.908-247.72,247.72"/>
	<path id="路径_1808" opacity="0.7" fill="#69BAF9" enable-background="new    " d="M635.6,509.85
		c0.219-85.755-69.122-155.45-154.878-155.668c-85.755-0.219-155.45,69.122-155.669,154.878c0,0.263,0,0.526,0,0.79"/>
</g>
<g id="组_764" transform="translate(-72.295)">
	<path fill="#3D3D63" d="M807.295,510h-264c-2.761,0-5-2.238-5-5s2.239-5,5-5h264c2.762,0,5,2.238,5,5S810.057,510,807.295,510z"/>
	<path fill="#3D3D63" d="M886.295,510h-58c-2.762,0-5-2.238-5-5s2.238-5,5-5h58c2.762,0,5,2.238,5,5S889.057,510,886.295,510z"/>
	<path fill="#3D3D63" d="M491.295,510h-60c-2.761,0-5-2.238-5-5s2.239-5,5-5h60c2.761,0,5,2.238,5,5S494.056,510,491.295,510z"/>
	<path fill="#3D3D63" d="M396.295,510h-178c-2.761,0-5-2.238-5-5s2.239-5,5-5h178c2.761,0,5,2.238,5,5S399.056,510,396.295,510z"/>
	<ellipse id="椭圆_336" fill="#3D3D63" cx="514.295" cy="505" rx="5" ry="4"/>
</g>
<g id="矩形_161" transform="translate(250 134)">
	<path fill="#D7DADD" d="M50,0h360c27.614,0,50,22.386,50,50v170c0,27.614-22.386,50-50,50H50c-27.614,0-50-22.386-50-50V50
		C0,22.386,22.386,0,50,0z"/>
	<path fill="#3D3D63" d="M410,270H50c-27.57,0-50-22.43-50-50V50C0,22.43,22.43,0,50,0h360c27.57,0,50,22.43,50,50v170
		C460,247.57,437.57,270,410,270z M50,26c-13.234,0-24,10.766-24,24v170c0,13.233,10.766,24,24,24h360c13.233,0,24-10.767,24-24V50
		c0-13.234-10.767-24-24-24H50z"/>
</g>
<path id="矩形_1263" fill="#B5C1CC" d="M276,328h408l0,0v26c0,13.255-10.745,24-24,24H300c-13.255,0-24-10.745-24-24V328L276,328z
	"/>
<g id="矩形_1260" transform="translate(350 257)">
	<path fill="#FFFFFF" d="M0,0h260l0,0v175c0,27.614-22.386,50-50,50H50c-27.614,0-50-22.386-50-50V0L0,0z"/>
	<path fill="#3D3D63" d="M210,225H50c-27.57,0-50-22.43-50-50V26C0,11.664,11.664,0,26,0h208c14.337,0,26,11.664,26,26v149
		C260,202.57,237.57,225,210,225z M26,26v149c0,13.233,10.767,24,24,24h160c13.233,0,24-10.767,24-24V26H26z"/>
</g>
<path fill="#3D3D63" d="M641,283H319c-7.18,0-13-5.82-13-13s5.82-13,13-13h322c7.18,0,13,5.82,13,13S648.18,283,641,283z"/>
<path fill="#3D3D63" d="M545,344H415c-7.18,0-13-5.82-13-13s5.82-13,13-13h130c7.18,0,13,5.82,13,13S552.18,344,545,344z"/>
<path fill="#F4494E" d="M508,385h-93c-7.18,0-13-5.82-13-13s5.82-13,13-13h93c7.18,0,13,5.82,13,13S515.18,385,508,385z"/>
<path fill="#3D3D63" d="M461,426h-46c-7.18,0-13-5.82-13-13s5.82-13,13-13h46c7.18,0,13,5.82,13,13S468.18,426,461,426z"/>
<rect id="矩形_1264" x="376" y="283" fill="#B5C1CC" width="208" height="19"/>
<circle id="椭圆_456" fill="#F4494E" cx="339" cy="203" r="27"/>
<circle id="椭圆_457" fill="#FFFFFF" cx="339" cy="203" r="12"/>
<path fill="#3D3D63" d="M641,218h-35c-8.284,0-15-6.716-15-15s6.716-15,15-15h35c8.284,0,15,6.716,15,15S649.284,218,641,218z"/>
<g id="组_899" transform="translate(177 72)">
	<g id="组_781" transform="translate(93.213 363.855)">
		<path fill="#8682F8" d="M32.692,20.346H0c-2.209,0-4-1.791-4-4s1.791-4,4-4h32.692c2.209,0,4,1.791,4,4
			S34.901,20.346,32.692,20.346z"/>
		<path fill="#8682F8" d="M16.346,36.692c-2.209,0-4-1.791-4-4V0c0-2.209,1.791-4,4-4s4,1.791,4,4v32.691
			C20.346,34.901,18.555,36.692,16.346,36.692z"/>
	</g>
	<g id="组_782" transform="translate(117.96 228.837)">
		<g id="组_775" transform="translate(0 0)">
			<g id="组_770" transform="translate(20.007)">
				<path fill="#8682F8" d="M0,11.322c-2.209,0-4-1.791-4-4V0c0-2.209,1.791-4,4-4s4,1.791,4,4v7.322C4,9.531,2.209,11.322,0,11.322
					z"/>
				<path fill="#8682F8" d="M0,44.015c-2.209,0-4-1.791-4-4v-7.322c0-2.209,1.791-4,4-4s4,1.791,4,4v7.322
					C4,42.224,2.209,44.015,0,44.015z"/>
			</g>
			<g id="组_771" transform="translate(0 20.007) rotate(-90)">
				<path fill="#8682F8" d="M-4,40.014v-7.321c0-2.209,1.791-4,4-4s4,1.791,4,4v7.321c0,2.209-1.791,4-4,4S-4,42.223-4,40.014z"/>
				<path fill="#8682F8" d="M-4,7.322V0c0-2.209,1.791-4,4-4s4,1.791,4,4v7.322c0,2.209-1.791,4-4,4S-4,9.531-4,7.322z"/>
			</g>
			<g id="组_772" transform="translate(5.86 34.154) rotate(-135)">
				<path fill="#8682F8" d="M-2.828,29.864c0.724-0.724,1.724-1.171,2.829-1.171c2.209,0,4,1.791,4,4.001L4,40.014
					c-0.001,2.208-1.793,4-4.001,3.999c-2.209,0-4-1.791-4-4.001L-4,32.691C-4,31.588-3.552,30.587-2.828,29.864z"/>
				<path fill="#8682F8" d="M-2.829-2.828C-2.105-3.552-1.105-4-0.001-4c2.21,0,4,1.791,4.001,4L4,7.321
					c0,2.208-1.791,4-3.999,4.001c-2.21,0-4-1.791-4.001-4L-4,0C-4.001-1.104-3.553-2.104-2.829-2.828z"/>
			</g>
			<g id="组_773" transform="translate(5.86 5.86) rotate(-45)">
				<path fill="#8682F8" d="M-2.829,10.151c-0.724-0.724-1.171-1.724-1.171-2.829L-4,0c0-2.209,1.791-4,4.001-4
					C2.209-3.998,4-2.208,4,0.001L3.999,7.322c0,2.209-1.791,4-4.001,4C-1.105,11.322-2.105,10.874-2.829,10.151z"/>
				<path fill="#8682F8" d="M-2.828,42.843C-3.552,42.119-4,41.119-4,40.015l-0.001-7.322c0-2.21,1.791-4,4-4.001
					C2.208,28.692,3.998,30.483,4,32.692L4,40.013c0,2.21-1.791,4-4,4.001C-1.104,44.014-2.104,43.567-2.828,42.843z"/>
			</g>
		</g>
	</g>
	<g id="路径_1815" transform="translate(0 155.875)">
		<path fill="none" d="M16.95,33.9C7.589,33.9,0,26.311,0,16.95C0,7.589,7.589,0,16.95,0C26.311,0,33.9,7.589,33.9,16.95
			C33.9,26.311,26.311,33.9,16.95,33.9L16.95,33.9z"/>
		<path fill="#8682F8" d="M16.95,25.899c4.935,0,8.95-4.015,8.95-8.95S21.885,8,16.95,8S8,12.015,8,16.95
			S12.015,25.899,16.95,25.899 M16.95,33.899C7.589,33.899,0,26.311,0,16.95S7.589,0,16.95,0s16.95,7.589,16.95,16.95
			S26.311,33.899,16.95,33.899z"/>
	</g>
	<g id="路径_1816" transform="translate(96.455 0)">
		<path fill="none" d="M14.127,28.254C6.325,28.254,0,21.929,0,14.127S6.325,0,14.127,0s14.127,6.325,14.127,14.127
			S21.929,28.254,14.127,28.254L14.127,28.254z"/>
		<path fill="#8682F8" d="M14.127,20.254c3.378,0,6.127-2.749,6.127-6.127S17.505,8,14.127,8S8,10.749,8,14.127
			S10.749,20.254,14.127,20.254 M14.127,28.254C6.325,28.254,0,21.929,0,14.127S6.325,0,14.127,0s14.127,6.325,14.127,14.127
			S21.929,28.254,14.127,28.254z"/>
	</g>
	<g id="路径_1817" transform="translate(521.238 262.143)">
		<path fill="none" d="M20.356,40.712C9.114,40.712,0,31.598,0,20.356S9.114,0,20.356,0s20.356,9.114,20.356,20.356
			S31.598,40.712,20.356,40.712z"/>
		<path fill="#8682F8" d="M20.356,32.711c6.813,0,12.355-5.542,12.355-12.355S27.169,8,20.356,8C13.543,8,8,13.543,8,20.356
			S13.543,32.711,20.356,32.711 M20.356,40.711C9.114,40.711,0,31.598,0,20.356S9.114,0,20.356,0s20.355,9.114,20.355,20.356
			S31.598,40.711,20.356,40.711z"/>
	</g>
	<g id="组_783" transform="translate(581.172 49.37)">
		<path fill="#8682F8" d="M24.703,15.401H0c-2.209,0-4-1.791-4-4s1.791-4,4-4h24.703c2.209,0,4,1.791,4,4
			S26.912,15.401,24.703,15.401z"/>
		<path fill="#8682F8" d="M12.352,28.703c-2.209,0-4-1.791-4-4V0c0-2.209,1.791-4,4-4s4,1.791,4,4v24.703
			C16.352,26.912,14.561,28.703,12.352,28.703z"/>
	</g>
</g>
</svg>
